<mxfile host="app.diagrams.net" modified="2023-03-07T18:52:42.443Z" agent="5.0 (X11; Ubuntu)" etag="eGbtxdXOJy0i8T86Bcsu" version="21.0.2" type="github">
  <diagram name="Page-1" id="e7e014a7-5840-1c2e-5031-d8a46d1fe8dd">
    <mxGraphModel dx="1600" dy="795" grid="1" gridSize="10" guides="1" tooltips="1" connect="1" arrows="1" fold="1" page="1" pageScale="1" pageWidth="1169" pageHeight="826" background="none" math="0" shadow="0">
      <root>
        <mxCell id="0" />
        <mxCell id="1" parent="0" />
        <mxCell id="anHry-vpl7FJ9HDEYVJr-38" value="" style="edgeStyle=orthogonalEdgeStyle;rounded=0;orthogonalLoop=1;jettySize=auto;html=1;strokeColor=#000000;entryX=-0.036;entryY=0.5;entryDx=0;entryDy=0;entryPerimeter=0;" parent="1" source="anHry-vpl7FJ9HDEYVJr-70" target="anHry-vpl7FJ9HDEYVJr-73" edge="1">
          <mxGeometry relative="1" as="geometry" />
        </mxCell>
        <mxCell id="anHry-vpl7FJ9HDEYVJr-39" style="edgeStyle=orthogonalEdgeStyle;rounded=0;orthogonalLoop=1;jettySize=auto;html=1;" parent="1" source="anHry-vpl7FJ9HDEYVJr-49" target="anHry-vpl7FJ9HDEYVJr-65" edge="1">
          <mxGeometry relative="1" as="geometry" />
        </mxCell>
        <mxCell id="anHry-vpl7FJ9HDEYVJr-40" value="" style="edgeStyle=orthogonalEdgeStyle;rounded=0;orthogonalLoop=1;jettySize=auto;html=1;" parent="1" source="anHry-vpl7FJ9HDEYVJr-41" target="anHry-vpl7FJ9HDEYVJr-44" edge="1">
          <mxGeometry relative="1" as="geometry" />
        </mxCell>
        <mxCell id="anHry-vpl7FJ9HDEYVJr-41" value="" style="ellipse;shape=startState;fillColor=#000000;strokeColor=#ff0000;" parent="1" vertex="1">
          <mxGeometry x="264.5" y="168" width="30" height="30" as="geometry" />
        </mxCell>
        <mxCell id="anHry-vpl7FJ9HDEYVJr-42" value="" style="edgeStyle=orthogonalEdgeStyle;rounded=0;orthogonalLoop=1;jettySize=auto;html=1;" parent="1" source="anHry-vpl7FJ9HDEYVJr-44" target="anHry-vpl7FJ9HDEYVJr-47" edge="1">
          <mxGeometry relative="1" as="geometry" />
        </mxCell>
        <mxCell id="anHry-vpl7FJ9HDEYVJr-43" value="" style="edgeStyle=orthogonalEdgeStyle;rounded=0;orthogonalLoop=1;jettySize=auto;html=1;" parent="1" source="anHry-vpl7FJ9HDEYVJr-44" target="anHry-vpl7FJ9HDEYVJr-55" edge="1">
          <mxGeometry relative="1" as="geometry" />
        </mxCell>
        <mxCell id="anHry-vpl7FJ9HDEYVJr-44" value="Signup" style="" parent="1" vertex="1">
          <mxGeometry x="224.5" y="238" width="110" height="50" as="geometry" />
        </mxCell>
        <mxCell id="anHry-vpl7FJ9HDEYVJr-45" value="" style="edgeStyle=orthogonalEdgeStyle;rounded=0;orthogonalLoop=1;jettySize=auto;html=1;" parent="1" source="anHry-vpl7FJ9HDEYVJr-47" target="anHry-vpl7FJ9HDEYVJr-49" edge="1">
          <mxGeometry relative="1" as="geometry" />
        </mxCell>
        <mxCell id="anHry-vpl7FJ9HDEYVJr-46" value="" style="edgeStyle=orthogonalEdgeStyle;rounded=0;orthogonalLoop=1;jettySize=auto;html=1;" parent="1" source="anHry-vpl7FJ9HDEYVJr-47" target="anHry-vpl7FJ9HDEYVJr-53" edge="1">
          <mxGeometry relative="1" as="geometry" />
        </mxCell>
        <mxCell id="anHry-vpl7FJ9HDEYVJr-47" value="Login" style="" parent="1" vertex="1">
          <mxGeometry x="224.5" y="348" width="110" height="50" as="geometry" />
        </mxCell>
        <mxCell id="anHry-vpl7FJ9HDEYVJr-48" value="" style="edgeStyle=orthogonalEdgeStyle;rounded=0;orthogonalLoop=1;jettySize=auto;html=1;" parent="1" source="anHry-vpl7FJ9HDEYVJr-49" target="anHry-vpl7FJ9HDEYVJr-51" edge="1">
          <mxGeometry relative="1" as="geometry" />
        </mxCell>
        <mxCell id="anHry-vpl7FJ9HDEYVJr-49" value="Verify Login" style="" parent="1" vertex="1">
          <mxGeometry x="224.5" y="453" width="110" height="50" as="geometry" />
        </mxCell>
        <mxCell id="anHry-vpl7FJ9HDEYVJr-50" style="edgeStyle=orthogonalEdgeStyle;rounded=0;orthogonalLoop=1;jettySize=auto;html=1;exitX=0;exitY=0.5;exitDx=0;exitDy=0;entryX=-0.005;entryY=0.56;entryDx=0;entryDy=0;entryPerimeter=0;strokeColor=#FF0000;" parent="1" source="anHry-vpl7FJ9HDEYVJr-51" target="anHry-vpl7FJ9HDEYVJr-49" edge="1">
          <mxGeometry relative="1" as="geometry" />
        </mxCell>
        <mxCell id="anHry-vpl7FJ9HDEYVJr-51" value="&lt;div&gt;Login&lt;/div&gt;&lt;div&gt;NOT&lt;/div&gt;&lt;div&gt;Verified&lt;br&gt;&lt;/div&gt;" style="rhombus;whiteSpace=wrap;html=1;fillColor=rgb(255, 255, 255);" parent="1" vertex="1">
          <mxGeometry x="239.5" y="568" width="80" height="80" as="geometry" />
        </mxCell>
        <mxCell id="anHry-vpl7FJ9HDEYVJr-52" style="edgeStyle=orthogonalEdgeStyle;rounded=0;orthogonalLoop=1;jettySize=auto;html=1;exitX=0.5;exitY=0;exitDx=0;exitDy=0;entryX=0.705;entryY=0.02;entryDx=0;entryDy=0;entryPerimeter=0;strokeColor=#FF0000;" parent="1" source="anHry-vpl7FJ9HDEYVJr-53" target="anHry-vpl7FJ9HDEYVJr-47" edge="1">
          <mxGeometry relative="1" as="geometry" />
        </mxCell>
        <mxCell id="anHry-vpl7FJ9HDEYVJr-53" value="&lt;div&gt;Login&lt;/div&gt;&lt;div&gt;Failed&lt;br&gt;&lt;/div&gt;" style="rhombus;whiteSpace=wrap;html=1;fillColor=rgb(255, 255, 255);" parent="1" vertex="1">
          <mxGeometry x="350" y="333" width="80" height="80" as="geometry" />
        </mxCell>
        <mxCell id="anHry-vpl7FJ9HDEYVJr-54" style="edgeStyle=orthogonalEdgeStyle;rounded=0;orthogonalLoop=1;jettySize=auto;html=1;exitX=0.5;exitY=0;exitDx=0;exitDy=0;entryX=0.741;entryY=0;entryDx=0;entryDy=0;entryPerimeter=0;strokeColor=#FF3333;" parent="1" source="anHry-vpl7FJ9HDEYVJr-55" target="anHry-vpl7FJ9HDEYVJr-44" edge="1">
          <mxGeometry relative="1" as="geometry" />
        </mxCell>
        <mxCell id="anHry-vpl7FJ9HDEYVJr-55" value="&lt;div&gt;Signup&lt;/div&gt;&lt;div&gt;Failed&lt;br&gt;&lt;/div&gt;" style="rhombus;whiteSpace=wrap;html=1;fillColor=rgb(255, 255, 255);" parent="1" vertex="1">
          <mxGeometry x="350" y="223" width="80" height="80" as="geometry" />
        </mxCell>
        <mxCell id="anHry-vpl7FJ9HDEYVJr-56" value="" style="edgeStyle=orthogonalEdgeStyle;rounded=0;orthogonalLoop=1;jettySize=auto;html=1;" parent="1" source="anHry-vpl7FJ9HDEYVJr-57" target="anHry-vpl7FJ9HDEYVJr-60" edge="1">
          <mxGeometry relative="1" as="geometry" />
        </mxCell>
        <mxCell id="anHry-vpl7FJ9HDEYVJr-57" value="" style="ellipse;shape=startState;fillColor=#000000;strokeColor=#ff0000;" parent="1" vertex="1">
          <mxGeometry x="510" y="168" width="30" height="30" as="geometry" />
        </mxCell>
        <mxCell id="anHry-vpl7FJ9HDEYVJr-58" value="" style="edgeStyle=orthogonalEdgeStyle;rounded=0;orthogonalLoop=1;jettySize=auto;html=1;" parent="1" source="anHry-vpl7FJ9HDEYVJr-60" target="anHry-vpl7FJ9HDEYVJr-67" edge="1">
          <mxGeometry relative="1" as="geometry" />
        </mxCell>
        <mxCell id="anHry-vpl7FJ9HDEYVJr-59" value="" style="edgeStyle=orthogonalEdgeStyle;rounded=0;orthogonalLoop=1;jettySize=auto;html=1;" parent="1" source="anHry-vpl7FJ9HDEYVJr-60" target="anHry-vpl7FJ9HDEYVJr-63" edge="1">
          <mxGeometry relative="1" as="geometry" />
        </mxCell>
        <mxCell id="anHry-vpl7FJ9HDEYVJr-60" value="Login" style="" parent="1" vertex="1">
          <mxGeometry x="470" y="238" width="110" height="50" as="geometry" />
        </mxCell>
        <mxCell id="anHry-vpl7FJ9HDEYVJr-61" value="" style="edgeStyle=orthogonalEdgeStyle;rounded=0;orthogonalLoop=1;jettySize=auto;html=1;" parent="1" source="anHry-vpl7FJ9HDEYVJr-63" target="anHry-vpl7FJ9HDEYVJr-69" edge="1">
          <mxGeometry relative="1" as="geometry" />
        </mxCell>
        <mxCell id="anHry-vpl7FJ9HDEYVJr-62" value="" style="edgeStyle=orthogonalEdgeStyle;rounded=0;orthogonalLoop=1;jettySize=auto;html=1;" parent="1" source="anHry-vpl7FJ9HDEYVJr-63" target="anHry-vpl7FJ9HDEYVJr-65" edge="1">
          <mxGeometry relative="1" as="geometry" />
        </mxCell>
        <mxCell id="anHry-vpl7FJ9HDEYVJr-63" value="Verify Login" style="" parent="1" vertex="1">
          <mxGeometry x="470" y="348" width="110" height="50" as="geometry" />
        </mxCell>
        <mxCell id="anHry-vpl7FJ9HDEYVJr-64" style="edgeStyle=orthogonalEdgeStyle;rounded=0;orthogonalLoop=1;jettySize=auto;html=1;entryX=0;entryY=0.52;entryDx=0;entryDy=0;entryPerimeter=0;strokeColor=#000000;" parent="1" source="anHry-vpl7FJ9HDEYVJr-65" target="anHry-vpl7FJ9HDEYVJr-70" edge="1">
          <mxGeometry relative="1" as="geometry" />
        </mxCell>
        <mxCell id="anHry-vpl7FJ9HDEYVJr-65" value="Menu" style="" parent="1" vertex="1">
          <mxGeometry x="470" y="453" width="110" height="50" as="geometry" />
        </mxCell>
        <mxCell id="anHry-vpl7FJ9HDEYVJr-66" style="edgeStyle=orthogonalEdgeStyle;rounded=0;orthogonalLoop=1;jettySize=auto;html=1;exitX=0.5;exitY=0;exitDx=0;exitDy=0;entryX=0.723;entryY=0.02;entryDx=0;entryDy=0;entryPerimeter=0;strokeColor=#FF0000;" parent="1" source="anHry-vpl7FJ9HDEYVJr-67" target="anHry-vpl7FJ9HDEYVJr-60" edge="1">
          <mxGeometry relative="1" as="geometry" />
        </mxCell>
        <mxCell id="anHry-vpl7FJ9HDEYVJr-67" value="&lt;div&gt;Login&lt;/div&gt;&lt;div&gt;Failed&lt;br&gt;&lt;/div&gt;" style="rhombus;whiteSpace=wrap;html=1;fillColor=rgb(255, 255, 255);" parent="1" vertex="1">
          <mxGeometry x="620.5" y="223" width="80" height="80" as="geometry" />
        </mxCell>
        <mxCell id="anHry-vpl7FJ9HDEYVJr-68" style="edgeStyle=orthogonalEdgeStyle;rounded=0;orthogonalLoop=1;jettySize=auto;html=1;exitX=0.5;exitY=0;exitDx=0;exitDy=0;entryX=0.686;entryY=0;entryDx=0;entryDy=0;entryPerimeter=0;strokeColor=#FF0000;" parent="1" source="anHry-vpl7FJ9HDEYVJr-69" target="anHry-vpl7FJ9HDEYVJr-63" edge="1">
          <mxGeometry relative="1" as="geometry" />
        </mxCell>
        <mxCell id="anHry-vpl7FJ9HDEYVJr-69" value="&lt;div&gt;Login&lt;/div&gt;&lt;div&gt;NOT&lt;br&gt;&lt;/div&gt;&lt;div&gt;Verified&lt;br&gt;&lt;/div&gt;" style="rhombus;whiteSpace=wrap;html=1;fillColor=rgb(255, 255, 255);" parent="1" vertex="1">
          <mxGeometry x="620.5" y="333" width="80" height="80" as="geometry" />
        </mxCell>
        <mxCell id="anHry-vpl7FJ9HDEYVJr-70" value="Logout" style="fillColor=rgb(255, 255, 255);strokeColor=rgb(0, 0, 0);fontColor=rgb(0, 0, 0);" parent="1" vertex="1">
          <mxGeometry x="580" y="520" width="110" height="50" as="geometry" />
        </mxCell>
        <mxCell id="anHry-vpl7FJ9HDEYVJr-71" value="" style="ellipse;shape=endState;fillColor=#000000;strokeColor=#ff0000" parent="1" vertex="1">
          <mxGeometry x="995" y="620" width="30" height="30" as="geometry" />
        </mxCell>
        <mxCell id="anHry-vpl7FJ9HDEYVJr-72" value="" style="edgeStyle=orthogonalEdgeStyle;rounded=0;orthogonalLoop=1;jettySize=auto;html=1;strokeColor=#000000;entryX=-0.045;entryY=0.5;entryDx=0;entryDy=0;entryPerimeter=0;" parent="1" source="anHry-vpl7FJ9HDEYVJr-73" target="anHry-vpl7FJ9HDEYVJr-75" edge="1">
          <mxGeometry relative="1" as="geometry" />
        </mxCell>
        <mxCell id="anHry-vpl7FJ9HDEYVJr-73" value="Logout" style="fillColor=rgb(255, 255, 255);strokeColor=rgb(0, 0, 0);fontColor=rgb(0, 0, 0);" parent="1" vertex="1">
          <mxGeometry x="770" y="520" width="110" height="50" as="geometry" />
        </mxCell>
        <mxCell id="anHry-vpl7FJ9HDEYVJr-74" value="" style="edgeStyle=orthogonalEdgeStyle;rounded=0;orthogonalLoop=1;jettySize=auto;html=1;strokeColor=#000000;" parent="1" source="anHry-vpl7FJ9HDEYVJr-75" target="anHry-vpl7FJ9HDEYVJr-71" edge="1">
          <mxGeometry relative="1" as="geometry" />
        </mxCell>
        <mxCell id="anHry-vpl7FJ9HDEYVJr-75" value="Confirm&#xa;Logout&#xa;" style="fillColor=rgb(255, 255, 255);strokeColor=rgb(0, 0, 0);fontColor=rgb(0, 0, 0);" parent="1" vertex="1">
          <mxGeometry x="955" y="520" width="110" height="50" as="geometry" />
        </mxCell>
      </root>
    </mxGraphModel>
  </diagram>
</mxfile>
